<svg width="27" height="27" viewBox="0 0 27 27" fill="none" xmlns="http://www.w3.org/2000/svg">
<path d="M13.0801 7.08014C11.8934 7.08014 10.7334 7.43203 9.74671 8.09132C8.76002 8.75061 7.99098 9.68768 7.53686 10.784C7.08273 11.8804 6.96391 13.0868 7.19542 14.2507C7.42694 15.4146 7.99838 16.4837 8.83749 17.3228C9.67661 18.1619 10.7457 18.7333 11.9096 18.9648C13.0735 19.1964 14.2799 19.0775 15.3762 18.6234C16.4726 18.1693 17.4097 17.4003 18.069 16.4136C18.7282 15.4269 19.0801 14.2668 19.0801 13.0801C19.0785 11.4893 18.4458 9.96418 17.3209 8.83932C16.1961 7.71446 14.6709 7.08179 13.0801 7.08014ZM13.0801 17.0801C12.289 17.0801 11.5157 16.8455 10.8579 16.406C10.2001 15.9665 9.68737 15.3418 9.38462 14.6109C9.08187 13.88 9.00265 13.0757 9.15699 12.2998C9.31133 11.5239 9.6923 10.8111 10.2517 10.2517C10.8111 9.6923 11.5239 9.31133 12.2998 9.15699C13.0757 9.00265 13.88 9.08187 14.6109 9.38462C15.3418 9.68737 15.9665 10.2001 16.406 10.8579C16.8455 11.5157 17.0801 12.289 17.0801 13.0801C17.0801 14.141 16.6587 15.1584 15.9086 15.9086C15.1584 16.6587 14.141 17.0801 13.0801 17.0801ZM24.0801 13.3501C24.0851 13.1701 24.0851 12.9901 24.0801 12.8101L25.9451 10.4801C26.0429 10.3578 26.1106 10.2142 26.1427 10.0609C26.1749 9.90763 26.1706 9.74895 26.1301 9.59764C25.8244 8.44839 25.367 7.34495 24.7701 6.31639C24.692 6.18178 24.5835 6.06728 24.4533 5.982C24.3231 5.89671 24.1748 5.843 24.0201 5.82514L21.0551 5.49514C20.9318 5.36514 20.8068 5.24014 20.6801 5.12014L20.3301 2.14764C20.3121 1.9929 20.2582 1.84451 20.1727 1.7143C20.0872 1.58408 19.9725 1.47565 19.8376 1.39764C18.8087 0.801819 17.7053 0.344928 16.5564 0.0388852C16.405 -0.00136867 16.2462 -0.0054858 16.0929 0.0268656C15.9397 0.0592169 15.7961 0.127132 15.6739 0.225135L13.3501 2.08014C13.1701 2.08014 12.9901 2.08014 12.8101 2.08014L10.4801 0.218885C10.3578 0.121096 10.2142 0.0534076 10.0609 0.0212742C9.90763 -0.0108592 9.74895 -0.00653973 9.59764 0.0338851C8.44857 0.340169 7.3452 0.797489 6.31639 1.39389C6.18178 1.47204 6.06728 1.58054 5.982 1.71075C5.89671 1.84095 5.843 1.98926 5.82514 2.14388L5.49514 5.11388C5.36514 5.23805 5.24014 5.36305 5.12014 5.48888L2.14764 5.83014C1.9929 5.84814 1.84451 5.90204 1.7143 5.98755C1.58408 6.07305 1.47565 6.1878 1.39764 6.32264C0.801819 7.35159 0.344928 8.45494 0.0388852 9.60389C-0.00136867 9.75529 -0.0054858 9.91404 0.0268656 10.0673C0.0592169 10.2206 0.127132 10.3642 0.225135 10.4864L2.08014 12.8101C2.08014 12.9901 2.08014 13.1701 2.08014 13.3501L0.218885 15.6801C0.121096 15.8025 0.0534076 15.9461 0.0212742 16.0993C-0.0108592 16.2526 -0.00653973 16.4113 0.0338851 16.5626C0.339622 17.7119 0.796971 18.8153 1.39389 19.8439C1.47204 19.9785 1.58054 20.093 1.71075 20.1783C1.84095 20.2636 1.98926 20.3173 2.14388 20.3351L5.10889 20.6651C5.23305 20.7951 5.35805 20.9201 5.48389 21.0401L5.83014 24.0126C5.84814 24.1674 5.90204 24.3158 5.98755 24.446C6.07305 24.5762 6.1878 24.6846 6.32264 24.7626C7.35159 25.3585 8.45494 25.8153 9.60389 26.1214C9.75529 26.1616 9.91404 26.1658 10.0673 26.1334C10.2206 26.1011 10.3642 26.0331 10.4864 25.9351L12.8101 24.0801C12.9901 24.0851 13.1701 24.0851 13.3501 24.0801L15.6801 25.9451C15.8025 26.0429 15.9461 26.1106 16.0993 26.1427C16.2526 26.1749 16.4113 26.1706 16.5626 26.1301C17.7119 25.8244 18.8153 25.367 19.8439 24.7701C19.9785 24.692 20.093 24.5835 20.1783 24.4533C20.2636 24.3231 20.3173 24.1748 20.3351 24.0201L20.6651 21.0551C20.7951 20.9318 20.9201 20.8068 21.0401 20.6801L24.0126 20.3301C24.1674 20.3121 24.3158 20.2582 24.446 20.1727C24.5762 20.0872 24.6846 19.9725 24.7626 19.8376C25.3585 18.8087 25.8153 17.7053 26.1214 16.5564C26.1616 16.405 26.1658 16.2462 26.1334 16.0929C26.1011 15.9397 26.0331 15.7961 25.9351 15.6739L24.0801 13.3501ZM22.0676 12.5376C22.0889 12.899 22.0889 13.2613 22.0676 13.6226C22.0527 13.87 22.1303 14.1141 22.2851 14.3076L24.0589 16.5239C23.8554 17.1707 23.5947 17.7982 23.2801 18.3989L20.4551 18.7189C20.2091 18.7462 19.982 18.8638 19.8176 19.0489C19.577 19.3195 19.3207 19.5758 19.0501 19.8164C18.865 19.9807 18.7474 20.2079 18.7201 20.4539L18.4064 23.2764C17.8058 23.5911 17.1783 23.8518 16.5314 24.0551L14.3139 22.2814C14.1364 22.1396 13.916 22.0625 13.6889 22.0626H13.6289C13.2675 22.0839 12.9052 22.0839 12.5439 22.0626C12.2965 22.0477 12.0524 22.1253 11.8589 22.2801L9.63638 24.0551C8.98955 23.8516 8.36208 23.591 7.76138 23.2764L7.44139 20.4551C7.41408 20.2091 7.29649 19.982 7.11139 19.8176C6.84077 19.577 6.5845 19.3207 6.34389 19.0501C6.17955 18.865 5.9524 18.7474 5.70639 18.7201L2.88389 18.4051C2.56913 17.8045 2.30851 17.177 2.10514 16.5301L3.87889 14.3126C4.03377 14.1191 4.11128 13.875 4.09639 13.6276C4.07514 13.2663 4.07514 12.904 4.09639 12.5426C4.11128 12.2952 4.03377 12.0511 3.87889 11.8576L2.10514 9.63638C2.30867 8.98955 2.56927 8.36208 2.88389 7.76138L5.70514 7.44139C5.95115 7.41408 6.1783 7.29649 6.34264 7.11139C6.58325 6.84077 6.83952 6.5845 7.11014 6.34389C7.29598 6.17944 7.41405 5.95178 7.44139 5.70514L7.75514 2.88389C8.35576 2.56913 8.98325 2.30851 9.63014 2.10514L11.8476 3.87889C12.0411 4.03377 12.2852 4.11128 12.5326 4.09639C12.894 4.07514 13.2563 4.07514 13.6176 4.09639C13.865 4.11128 14.1091 4.03377 14.3026 3.87889L16.5239 2.10514C17.1707 2.30867 17.7982 2.56927 18.3989 2.88389L18.7189 5.70514C18.7462 5.95115 18.8638 6.1783 19.0489 6.34264C19.3195 6.58325 19.5758 6.83952 19.8164 7.11014C19.9807 7.29524 20.2079 7.41283 20.4539 7.44014L23.2764 7.75389C23.5911 8.35451 23.8518 8.982 24.0551 9.62889L22.2814 11.8464C22.125 12.0415 22.0474 12.2881 22.0639 12.5376H22.0676Z" fill="black"/>
</svg>
